<svg xmlns="http://www.w3.org/2000/svg" width="351" height="382" fill="none"><path d="M79 193.667c1.473 0 2.667-1.194 2.667-2.667s-1.194-2.667-2.667-2.667-2.667 1.194-2.667 2.667 1.194 2.667 2.667 2.667zM33 221.5l-.276-.417-.224.149v.268h.5zm0 87.167c1.473 0 2.667-1.194 2.667-2.667s-1.194-2.667-2.667-2.667-2.667 1.194-2.667 2.667 1.194 2.667 2.667 2.667zm45.724-118.084l-46 30.5.553.834 46-30.5-.553-.834zM32.5 221.5V306h1v-84.5h-1z" fill="#333e4d"/><rect x="11.5" y="321" width="45" height="45" rx="22.5" fill="#393939"/><path fill-rule="evenodd" d="M24.996 343.772l9.002-14.936v.001-.001L43 343.772l-9.002 5.321h0 0 0 0 0 0 0 0l-9.001-5.321h0 0zm9 14.389l-9-12.682 9.002 5.318 9.007-5.318-9.006 12.684v.001-.001l-.001.001-.001-.003z" fill="#fff"/><path d="M1 361.986V324.31L33.398 306 66.5 324.31v37.676L33.398 381 1 361.986z" stroke="#333e4d"/><path d="M256.667 324.5a2.67 2.67 0 0 1-2.667 2.667 2.67 2.67 0 0 1-2.667-2.667 2.67 2.67 0 0 1 2.667-2.667 2.67 2.67 0 0 1 2.667 2.667zM148 324.5v.5h-.5v-.5h.5zm2.667-60.5a2.67 2.67 0 0 1-2.667 2.667 2.67 2.67 0 0 1-2.667-2.667 2.67 2.67 0 0 1 2.667-2.667 2.67 2.67 0 0 1 2.667 2.667zM254 325H148v-1h106v1zm-106.5-.5V264h1v60.5h-1z" fill="#333e4d"/><path d="M283.984 330.512h-3.455l2.161-13.362h3.455l-2.161 13.362zm12.326-13.035c-.682-.271-1.763-.569-3.099-.569-3.412 0-5.815 1.819-5.83 4.421-.028 1.919 1.72 2.985 3.028 3.625 1.337.654 1.791 1.081 1.791 1.663-.013.896-1.08 1.308-2.074 1.308-1.38 0-2.119-.213-3.242-.711l-.455-.213-.484 2.999c.811.37 2.304.697 3.854.712 3.625 0 5.985-1.792 6.013-4.564.014-1.521-.909-2.686-2.9-3.639-1.208-.611-1.949-1.023-1.949-1.649.015-.569.626-1.151 1.991-1.151 1.123-.029 1.948.241 2.573.511l.313.142.47-2.885zm4.791 8.302l1.38-3.739c-.015.029.284-.782.454-1.279l.242 1.151.796 3.867h-2.872zm4.265-8.629h-2.672c-.824 0-1.45.242-1.806 1.109l-5.132 12.253h3.625l.725-2.004h4.436l.413 2.004h3.199l-2.788-13.362zm-27.722 0l-3.384 9.112-.37-1.848c-.625-2.132-2.587-4.449-4.777-5.601l3.1 11.685h3.653l5.431-13.348h-3.653z" fill="#00579f"/><path d="M271.118 317.15h-5.559l-.057.27c4.336 1.109 7.208 3.782 8.388 6.995l-1.208-6.142c-.199-.853-.811-1.095-1.564-1.123z" fill="#faa61a"/><path d="M254 342.986V305.31L286.317 287l33.02 18.31v37.676L286.317 362 254 342.986z" stroke="#333e4d" stroke-width=".92"/><path d="M272 194.833a2.67 2.67 0 0 0-2.667 2.667 2.67 2.67 0 0 0 2.667 2.667 2.67 2.67 0 0 0 2.667-2.667 2.67 2.67 0 0 0-2.667-2.667zm46-17.333l.199.459.301-.131v-.328h-.5zm0-78.167c-1.473 0-2.667 1.194-2.667 2.667a2.67 2.67 0 0 0 2.667 2.667 2.67 2.67 0 0 0 2.667-2.667c0-1.473-1.194-2.667-2.667-2.667zm-45.801 98.626l46-20-.398-.918-46 20 .398.918zM318.5 177.5V102h-1v75.5h1z" fill="#333e4d"/><rect x="295.5" y="42" width="45" height="45" rx="22.5" fill="#008de4"/><path d="M322.305 53.22h-10.116l-.839 4.687 9.131.011c4.498 0 5.824 1.635 5.786 4.341-.021 1.386-.622 3.735-.882 4.498-.693 2.03-2.116 4.341-7.453 4.335l-8.877-.005-.836 4.693h10.094c3.562 0 5.072-.417 6.68-1.153 3.556-1.651 5.672-5.158 6.522-9.737 1.258-6.82-.311-11.67-9.21-11.67zm-14.481 8.925c-2.652 0-3.031 1.727-3.28 2.771l-.439 1.921h10.36c2.653 0 3.032-1.727 3.28-2.771l.439-1.922h-10.36z" fill="#fff"/><path d="M285 82.986V45.31L317.398 27 350.5 45.31v37.676L317.398 102 285 82.986z" stroke="#333e4d"/><path d="M172.833 67c0 1.473 1.194 2.667 2.667 2.667s2.667-1.194 2.667-2.667-1.194-2.667-2.667-2.667-2.667 1.194-2.667 2.667zM160.5 38l.444-.23-.14-.27h-.304v.5zm-89.167 0c0 1.473 1.194 2.667 2.667 2.667s2.667-1.194 2.667-2.667-1.194-2.667-2.667-2.667-2.667 1.194-2.667 2.667zm104.611 28.77l-15-29-.888.459 15 29 .888-.459zM160.5 37.5H74v1h86.5v-1z" fill="#333e4d"/><rect x="19.5" y="16" width="45" height="45" rx="22.5" fill="#f9aa4b"/><path d="M53.027 35.614c.452-3.076-1.882-4.74-5.102-5.844l1.049-4.179-2.533-.633-1.013 4.071-2.044-.47 1.013-4.089-2.533-.633-1.031 4.161-1.628-.38v-.018l-3.51-.868-.669 2.714 1.846.452c1.031.253 1.212.941 1.176 1.484l-1.194 4.758c.072.018.163.036.271.09-.091-.018-.181-.036-.271-.072l-1.665 6.658c-.127.308-.452.778-1.158.597.018.036-1.845-.452-1.845-.452l-1.267 2.913 3.311.832 1.809.47-1.049 4.216 2.533.633 1.049-4.179 2.026.525-1.031 4.161 2.533.633 1.049-4.216c4.342.814 7.599.489 8.956-3.438 1.104-3.148-.054-4.976-2.334-6.17 1.683-.38 2.931-1.484 3.257-3.727zm-5.808 8.142c-.778 3.148-6.097 1.447-7.816 1.013l1.393-5.591c1.719.434 7.255 1.285 6.423 4.578zm.796-8.196c-.724 2.877-5.138 1.411-6.568 1.049l1.267-5.066c1.429.362 6.043 1.031 5.301 4.017z" fill="#fff"/><path d="M9 56.986V19.31L41.398 1 74.5 19.31v37.676L41.398 76 9 56.986z" stroke="#333e4d"/><rect x="76" y="68" width="200" height="200" rx="100" fill="#333e4d"/><path fill-rule="evenodd" d="M170.408 82.698C92.922 89.95 62.166 184.47 121.271 233.708c53.304 44.405 134.223 10.208 140.08-59.199 4.308-51.048-40.726-96.513-90.943-91.811zm17.261 15.725c56.713 9.591 79.042 79.562 38.365 120.23-34.004 33.997-91.148 25.113-113.271-17.613-26.814-51.785 17.389-112.344 74.906-102.617zm-21.313 1.98c-1.021.295-.996.378 1.215 4.241l2.253 3.937 9.771.125 9.768.126 1.902-3.259c1.983-3.393 2.042-4.174.306-4.174-.773 0-1.374.634-2.406 2.547l-1.374 2.547h-8.113l-8.11-.003-1.766-3.239c-.971-1.786-1.911-3.223-2.086-3.195s-.79.18-1.36.347zm4.18 2.464c1.917 3.42 5.435 4.735 5.435 2.035 0-.984-.217-1.187-1.274-1.187-.998 0-1.477-.378-2.203-1.738-.689-1.293-1.268-1.777-2.264-1.891l-1.337-.153 1.643 2.934zm-9.106-1.566c-.125.201.776 2.103 2 4.224l2.225 3.86-4.016 7.016-4.016 7.013-5.082.147-5.078.147 4.397 1.127c6.603 1.69 7.081 1.621 8.703-1.307l4.672-8.153c3.941-6.794 3.808-5.364.965-10.331-2.272-3.968-3.86-5.216-4.77-3.743zm31.46 4.388c-2.437 4.413-2.459 3.804.286 8.498l4.102 7.141c3.221 5.726 1.672 5.097 12.561 5.097h9.54l1.938-3.384c2.192-3.832 2.245-4.074 1.124-5.075-.754-.67-.94-.498-2.665 2.475l-1.855 3.198h-8.11-8.113l-.745-1.271-4.036-6.955-3.288-5.681 1.822-3.125c1.661-2.842 1.752-3.176 1.049-3.701-1.31-.982-1.694-.687-3.61 2.783zm3.543.801l-1.861 3.231 3.794 6.716 3.796 6.718 1.97.011c1.796.014 1.969-.086 1.969-1.143 0-.956-.226-1.159-1.274-1.162-.898-.003-1.494-.378-2.019-1.274-6.453-11.025-5.958-9.513-4.122-12.627 1.646-2.792 1.619-2.625.5-3.223-.784-.42-1.112-.092-2.753 2.753zm-28.38 7.074l-3.196 5.445c-4.767 7.869-4.87 8.526-1.583 10.125l2.134 1.034-1.018-1.646-1.018-1.646 1.415-2.425 4.097-7.172 2.684-4.741 7.98-.008c7.509-.008 8.007.047 8.474.917.348.648.971.929 2.07.929h1.574l-1.166-2.085-1.165-2.086h-9.676-9.673l-1.933 3.359zm-31.234-1.807c-.81.589-.693.912 2.091 5.792l2.948 5.169h1.992c1.683 0 1.991-.144 1.991-.928 0-.701-.308-.926-1.276-.926-1.124 0-1.563-.509-3.705-4.288-3.371-5.943-3.043-5.551-4.041-4.819zm-2.776 2.13c-.782.862-.779.959.089 2.202.498.715 1.591 2.603 2.431 4.196 1.421 2.698 1.635 2.895 3.123 2.895h1.597l-1.129-1.969c-5.341-9.304-4.851-8.717-6.111-7.324zm-2.695 2.085c-1.655 1.213 1.761 7.341 4.228 7.586 1.693.17 1.763-.03.589-1.696-.478-.676-1.413-2.311-2.077-3.632-1.427-2.83-1.675-3.033-2.74-2.258zm57.912 1.029c-.542.542-.334 1.874.387 2.472 1.298 1.079.987 10.659-.348 10.664-5.143.023-10.627 6.352-10.714 12.366-.033 2.406-1.157 3.568-1.813 1.88-4.998-12.866-34.227-23.219-46.99-16.643-16.98 8.746 6.269 33.444 31.479 33.444h3.265l-2.798 1.808c-12.952 8.369-19.589 28.66-15.928 48.709 1.271 6.966 1.46 7.058 8.624 4.205 19.959-7.953 32.286-21.754 33.482-37.487l.255-3.39 1.207 2.016c13.32 22.277 45.069 30.471 44.999 11.613-.047-13.634-19.603-31.676-35.487-32.743-3.971-.265-4.73-1.168-2.013-2.395 4.856-2.188 7.935-9.699 6.03-14.707-.498-1.307 7.74-6.546 9.551-6.073 1.076.284 2.138-.831 1.913-2.005-.272-1.41-2.892-1.134-3.07.326-.114.923-1.004 1.643-4.406 3.559l-4.261 2.4-2.061-2.35c-2.255-2.569-5.818-4.524-8.252-4.533l-1.507-.005v-4.944c0-3.871.161-5.122.737-5.762 1.401-1.546-.81-3.896-2.281-2.425zm4.442 3.376c-.835 1.349-.737 1.866.787 4.16.984 1.488 1.246 2.266.943 2.831-.362.673 1.618 2.319 2.091 1.74 1.16-1.418 1.129-2.308-.167-4.877-2.102-4.165-2.926-5.033-3.654-3.854zm-27.093 2.494c-.943 1.574-1.827 3.17-1.963 3.554-.393 1.087 2.169 4.711 4.508 6.379l2.119 1.513-2.055-3.418c-2.448-4.071-2.425-3.829-.606-7.052.795-1.409 1.368-2.611 1.274-2.672a26.09 26.09 0 0 1-.868-.634c-.576-.434-.993-.028-2.409 2.33zm55.757.351c-2.317 4.018-2.348 3.348.359 7.947l4.75 8.117 2.5 4.285 4.982.003c2.742 0 4.984-.095 4.984-.212 0-1.974-1.118-2.569-4.826-2.574l-3.749-.003-1.666-2.895-4.03-6.968-2.367-4.08 1.402-2.375c1.224-2.077 1.326-2.508.823-3.453-.843-1.571-1.076-1.41-3.162 2.208zm3.045 1.579l-1.162 2.083 3.788 6.71 3.791 6.707 1.972.014c1.794.014 1.969-.089 1.969-1.146 0-.976-.217-1.157-1.383-1.157-1.159 0-1.54-.317-2.378-1.971-.547-1.082-1.908-3.476-3.02-5.32-2.286-3.781-2.311-3.893-1.277-5.472.604-.923.64-1.279.176-1.838-.877-1.057-1.213-.868-2.476 1.39zm-26.425 3.668c-.692 1.057-.67 1.154.42 1.869 1.024.673 1.179.675 1.421.041.217-.561 1.102-.709 4.228-.709 3.621 0 4.044-.097 5.029-1.159l1.073-1.16h-5.718c-5.532 0-5.744.039-6.453 1.118zm17.25.62c.943.957 2.472 3.095 3.398 4.752a271.77 271.77 0 0 0 3.775 6.465l2.088 3.454-1.237 2.152-4.019 7.083-2.781 4.93-2.086.014-2.086.017 2.316 1.373c1.274.757 2.526 1.377 2.782 1.38s2.631-3.799 5.279-8.44l4.814-8.442-.832-1.402-2.547-4.413-3.916-6.837-2.203-3.824h-2.231-2.233l1.719 1.738zm-102.563 9.655c-.501 1.307-.306 1.585 1.11 1.585 1.173 0 1.39-.181 1.39-1.16 0-1.354-2.011-1.696-2.5-.425zm-1.191 2.944c-.264.493-.481 1.015-.481 1.16s2.503.261 5.563.261 5.562-.116 5.562-.261c0-1.685-1.001-2.055-5.562-2.055-4.078 0-4.659.103-5.082.895zm-1.357 3.39c-.815 2.175-1.068 3.432-.514 2.55.45-.715 1.354-.812 7.698-.812h7.187l-.82-1.39-.824-1.391h-6.169c-5.971 0-6.18.034-6.558 1.043zm113.983 7.625c-5.529 9.71-5.443 8.779-1.196 12.833 1.933 1.846 3.513 3.281 3.513 3.189s-.94-1.799-2.089-3.793l-2.091-3.623 3.938-6.899 3.938-6.899 5.043-.231c4.998-.23 5.042-.241 4.658-1.273-.372-1.001-.609-1.043-5.849-1.04h-5.462l-4.403 7.736zm-93.131 2.341c.826 1.466 1.885 3.218 2.352 3.893 1.132 1.641 1.08 2.166-.453 4.588-.717 1.135-2.511 4.199-3.988 6.813l-2.687 4.75h-7.979-7.977l-1.091-1.969c-.6-1.085-1.599-2.7-2.219-3.593l-1.129-1.621.253 2.736c.142 1.521.729 3.632 1.324 4.75l1.068 2.013 9.734-.006 9.735-.005 4.717-8.22 4.714-8.22-1.468-2.614c-1.235-2.194-5.121-5.961-6.147-5.961-.142 0 .414 1.201 1.241 2.666zm-23.858 1.101c-.47 2.353-.304 2.589.611.868.835-1.563.852-2.316.056-2.316-.206 0-.509.65-.667 1.448zm117.951 1.844l-1.899 3.292 3.807 6.671 3.811 6.671h1.988c1.683 0 1.992-.142 1.992-.926 0-.7-.312-.928-1.274-.931-1.143-.003-1.602-.576-4.406-5.506-3.632-6.387-3.521-5.831-1.738-8.857 1.683-2.853 1.63-3.706-.228-3.706-.086 0-1.01 1.482-2.053 3.292zm-87.182.879c.884 1.24 1.246 1.387 3.39 1.376l2.403-.011-3.231-1.379c-1.778-.757-3.305-1.377-3.394-1.377s.287.626.832 1.391zm-2.664 8.689l-4.72 8.27-1.363 2.364 4.734 8.298c4.711 8.261 4.739 8.297 6.458 8.439 1.649.136 1.727.081 1.727-1.273 0-1.099-.206-1.419-.907-1.419-.639 0-1.479-.995-2.842-3.362l-3.977-6.807c-2.429-4.093-2.623-2.97 1.93-11.036l3.71-6.566 7.84-.133c4.695-.081 7.905-.323 7.997-.598.247-.748-8.044-2.102-12.825-2.091l-4.403.008-3.359 5.906zm-29.037-3.044c-.242 1.212.103 2.171 1.961 5.444l2.258 3.971 2.15.142c1.911.125 2.153.033 2.153-.812 0-.731-.298-.951-1.285-.951-1.138 0-1.597-.531-4-4.636-3.118-5.319-2.856-5.066-3.237-3.158zm74.633 17.207l3.299 1.899-.907 2.68c-.848 2.509-.971 2.648-1.908 2.158-1.674-.876-25.972-14.874-26.892-15.494-.801-.539-.732-.712 1.07-2.667l1.928-2.091 10.057 5.809 13.353 7.706zm-45.83-6.81c-2.136 3.756-2.197 3.028.648 7.905l3.805 6.524c.876 1.499 1.738 2.433 2.25 2.433 1.368 0 .976-1.543-1.374-5.411-1.21-1.994-2.759-4.669-3.438-5.943l-1.237-2.319 1.615-2.733c1.252-2.125 1.477-2.823 1.004-3.123-1.134-.72-1.532-.395-3.273 2.667zm96.55.99c.066 1.593 1.287 1.968 6.408 1.968h5.165v-1.159-1.157h-5.794c-3.187 0-5.788.156-5.779.348zm-123.69 2.989c-.64.639-.734 3.543-.147 4.471.297.467.561.256 1.037-.82l.64-1.446 8.327.125 8.33.125 1.869 3.301 3.883 6.857 2.013 3.554-3.877 6.816-3.88 6.815-3.396.234-3.396.23 1.007 1.274c.918 1.165 1.277 1.276 4.103 1.274h3.095l1.438-2.664c.793-1.466 2.92-5.22 4.728-8.343l3.288-5.675-3.149-5.447-4.864-8.343-1.719-2.894h-9.387c-6.683 0-9.548.158-9.943.556zm57.133 7.597c15.545 8.962 14.802 8.253 11.746 11.192l-1.563 1.502-12.961-7.466c-15.534-8.952-14.274-7.9-13.122-10.948 1.176-3.109-.392-3.673 15.9 5.72zm68.81-6.185c.356.963.709 1.054 4.619 1.177l4.236.133v-1.176-1.176h-4.62c-4.597 0-4.619.005-4.235 1.042zm-45.043 2.484c-.863.864-.106 3.136 2.53 7.588l2.865 4.841-1.518 2.798c-.835 1.538-2.668 4.727-4.069 7.085l-2.551 4.285-7.952.003c-6.906.003-8.118.114-9.231.848-2.03 1.338-1.226 1.468 9.126 1.468 11.161 0 9.576.632 12.796-5.099l4.092-7.114 2.394-4.101-2.817-4.936c-3.087-5.406-5.143-8.189-5.665-7.666zm8.19 9.304c1.516 2.578 1.672 2.7 3.597 2.806l2.016.111-1.14-.806c-.626-.443-2.245-1.705-3.596-2.806l-2.462-2 1.585 2.695zm-37.717 4.432c6.311 3.635 11.381 6.76 11.27 6.947s-1.118.97-2.233 1.738l-2.028 1.393-9.885-5.74c-5.437-3.156-9.862-5.973-9.837-6.253s.078-1.455.114-2.603c.095-2.792-.437-2.984 12.599 4.518zm-23.624 3.71l-4.183 7.299-2.297 3.952c-.523.823-.406 1.265.904 3.476l2.403 4.157c3.067 5.542 3.785 6.423 6.566 8.069l2.815 1.663 7.89-.003 7.891-.002 2.289-4.052 4.734-8.181c2.723-4.596 2.77-5.369.244-3.918-1.379.796-2.43 2.25-5.351 7.414l-3.632 6.426h-8.007-8.011l-3.587-6.14-4.161-7.052c-.481-.773-.356-1.262.829-3.245l4.138-7.082c1.886-3.268 3.007-4.753 3.582-4.753.774 0 1.405-.851 1.405-1.891 0-.233-.896-.425-1.989-.425h-1.988l-2.484 4.288zm60.429.231l-4.92 8.378-2.267 3.862 1.936 3.323 3.385 5.87 2.834 4.978 1.385 2.425 4.361.008c3.941.006 4.57-.117 6.492-1.268l2.125-1.276-5.744-.231-5.743-.231-1.686-2.781c-7.125-11.756-6.919-9.824-1.944-18.308l3.243-5.561c.295-.534 1.502-.726 5.201-.829l4.82-.136-2.673-1.371c-2.072-1.062-3.287-1.371-5.415-1.371h-2.739l-2.651 4.519zm30.561.406c-.414.169 2.55 5.948 3.894 7.588.105.125.481-.167.834-.65.573-.785.454-1.235-1.079-4.052-1.619-2.97-2.242-3.462-3.649-2.886zm-8.875.442c7.331 12.63 6.828 10.945 4.486 15.007-2.545 4.413-2.116 4.461 1.858.206l3.315-3.551-1.46-2.605c-4.2-7.5-5.117-8.863-5.96-8.863-.479 0-1.232-.139-1.677-.311s-.701-.12-.562.117zm5.003.422c0 .337 5.032 9.132 5.482 9.586.173.169.662-.164 1.091-.743 1.187-1.602-2.893-8.762-5.121-8.984-.798-.081-1.452-.017-1.452.141zm-63.797 8.612c.223.198-.859.996-2.406 1.777l-2.812 1.418-3.373-1.991c-3.635-2.146-3.972-2.68-4.053-6.434l-.044-2.186 6.141 3.532 6.547 3.884zm-24.158-1.771c-2.331 3.868-2.386 3.482 1.571 10.528l3.641 6.482 2.2.011c2.751.014 3.374-1.671.715-1.93-1.371-.133-1.733-.576-4.634-5.634l-3.145-5.489 1.629-2.917c1.394-2.486 1.522-2.956.888-3.2-1.224-.47-1.341-.381-2.865 2.149zm59.951.937l-1.805 3.37 3.721 6.479 3.721 6.477 2.145.142c1.899.125 2.144.033 2.144-.812 0-.743-.298-.951-1.354-.951-1.246 0-1.616-.456-4.603-5.67l-3.249-5.667 1.588-2.89c1.552-2.822 1.457-3.848-.353-3.848-.084 0-.962 1.515-1.955 3.37zm-22.381-1.763l-1.302 1.143 1.738.014c1.549.014 1.739-.111 1.739-1.143 0-1.46-.529-1.463-2.175-.014zm-49.046 6.271c.732.764 1.569 1.39 1.861 1.39s.826.551 1.185 1.221c.695 1.298 6.016 6.326 6.344 5.998.108-.109-.732-1.724-1.864-3.59s-2.408-4.074-2.834-4.903c-.737-1.432-.909-1.507-3.401-1.507h-2.623l1.332 1.391zm41.049 4.983l-4.767 8.339-1.352 2.43.902 1.277c.495.703 1.332 2.135 1.863 3.184.743 1.468 1.31 1.977 2.453 2.205 2.122.425 2.114.272-.183-3.498-2.025-3.323-2.053-3.418-1.28-4.552.437-.637 2.303-3.818 4.15-7.069l3.357-5.909h8.021 8.021l4.028 7.066c4.486 7.869 4.386 7.188 1.627 11.356-.938 1.413-.946 1.507-.142 1.499 1.599-.011 2.993-1.146 4.336-3.523l1.338-2.375-2.437-4.115-4.725-8.167-2.289-4.052-9.754-.003-9.751-.002-3.416 5.909zm-.089 7.177l-1.952 3.339 1.894 3.485c1.577 2.903 2.13 3.534 3.304 3.773l1.413.289-.687-1.326c-.378-.729-1.31-2.383-2.072-3.673l-1.385-2.35 1.613-2.881c1.552-2.778 1.577-2.903.718-3.44-.813-.506-1.077-.244-2.846 2.784zm-17.552 5.094c1.257.584 3.401 1.051 5.395 1.173 2.91.181 3.38.34 3.902 1.319.504.939 3.527 2.346 4.008 1.865.081-.08-.534-1.318-1.365-2.75l-1.511-2.605-6.257.014-6.258.016 2.086.968zm50.141.868l-1.082 1.893 1.082-.328c1.746-.528 7.804-3.073 7.804-3.278 0-.103-1.513-.187-3.363-.184l-3.359.003-1.082 1.894z" fill="#fbcc0d"/></svg>